<svg width="120" height="69" viewBox="0 0 120 69" fill="none" xmlns="http://www.w3.org/2000/svg">
<g clip-path="url(#clip0_5_2032)">
<path d="M32.7856 15.0338C30.8354 14.4016 27.9345 13.8926 25.173 13.8926H25.1648C24.4519 13.8926 23.7307 13.9583 23.026 14.0896C17.1178 15.1981 11.226 18.0635 7.44011 23.8602C-0.729786 36.3977 6.00608 46.2915 11.6029 52.4247C12.2093 53.0898 13.291 53.9601 14.7824 54.9372C15.4953 55.4052 16.3065 55.7418 17.1506 55.8814C18.2814 56.0702 19.5106 56.1441 20.8545 56.1113C27.7952 55.5858 31.3926 52.162 32.6382 48.2456C32.6545 48.1963 32.6709 48.1388 32.6873 48.0731C32.8512 47.4081 32.884 46.702 32.7775 46.0287C32.4906 44.2306 31.6138 43.0975 30.1388 42.6213C28.8851 42.2436 27.8935 42.1123 27.1724 42.2436C26.4513 42.375 25.4598 42.7363 24.1978 43.3356C22.9359 43.9268 21.7805 44.091 20.7398 43.8283C20.4693 43.738 20.2317 43.6312 20.0186 43.4999C18.601 42.531 18.2814 40.8561 19.0435 38.4586L19.2074 37.9413C19.2811 37.7278 19.3549 37.5144 19.445 37.3091C20.4611 35.0594 23.5669 32.2268 24.9517 32.6701C25.4516 32.8343 26.2301 33.4419 27.2953 34.4929C28.0247 35.2154 28.7294 35.7573 29.4177 36.135C30.0077 36.4552 30.6715 36.6358 31.3434 36.7015C31.3516 36.7097 31.4254 36.7097 31.4336 36.7097C32.4825 36.8247 33.4904 36.6851 34.4245 36.2089C36.6452 35.084 37.4401 33.5487 38.1612 31.6192C38.784 29.9606 38.8742 26.8899 38.9889 24.7716C38.9971 24.5581 39.0053 24.3446 38.9971 24.1311C38.8086 19.328 36.7436 16.2983 32.7938 15.0338H32.7856Z" fill="#F2F2F2"/>
<path d="M51.9603 40.7487C51.7555 40.5599 51.5178 40.3957 51.272 40.2561C51.0261 40.1165 50.8131 40.0262 50.6328 39.9523C50.3952 39.862 50.1657 39.7717 49.9363 39.6978C47.7402 38.9588 46.7896 36.3643 48.1007 34.443C49.5266 32.3493 50.5509 30.5348 51.1573 28.9994L51.4031 28.3754C51.4523 28.244 51.5014 28.1045 51.5424 27.9649C51.8292 26.8975 52.0668 25.8958 52.2471 24.9516C52.4684 23.835 52.116 22.6691 51.2966 21.8726C49.4774 20.0827 46.9371 18.6951 43.5364 18.9989C42.1433 19.1221 40.9633 20.0909 40.5372 21.4293C39.7342 23.9745 39.2753 25.8219 39.1523 26.9714C38.9885 28.5971 38.7672 31.4051 38.4968 35.3954C38.2264 39.394 37.8166 42.3169 37.2512 44.1643C37.1939 44.3614 37.1283 44.5584 37.0464 44.7719C36.3826 46.4468 34.9895 48.2778 32.8672 50.2648C30.458 52.4898 29.0649 54.0745 28.6962 55.0187C27.7374 57.4326 27.8112 59.3456 28.9256 60.7743C29.7287 61.7431 30.6629 62.4656 31.7281 62.9254C31.8101 62.9665 31.892 62.9993 31.974 63.0322C32.2854 63.1635 32.605 63.2621 32.9409 63.3442H32.9491C33.0556 63.377 33.1704 63.4017 33.2851 63.4263C35.768 64.4198 37.7265 63.3278 39.1687 60.1421C39.2916 59.8875 39.4064 59.6166 39.5211 59.3374C40.6519 56.4884 41.3157 53.0974 41.5124 49.1645C41.5369 48.6555 41.668 48.1546 41.8975 47.7031C41.9385 47.6292 41.9794 47.5471 42.0204 47.4732C44.0772 43.8687 49.6904 46.6111 48.2154 50.4947C48.1991 50.5439 48.1827 50.5932 48.1581 50.6342C47.7238 51.7262 46.429 53.6065 44.2739 56.2667C42.1105 58.9351 41.3649 59.6084 40.6847 61.3244C40.3897 62.3589 40.5946 63.2949 41.3075 64.116C41.8729 64.7892 42.7825 65.3886 44.0199 65.9223C46.1422 66.768 48.0679 66.7844 49.797 65.9551C51.3457 65.2326 52.7388 63.8286 53.9762 61.776C54.0827 61.6035 54.1646 61.4229 54.2384 61.2341L54.4432 60.725C58.3028 51.0037 57.0245 45.3466 51.9521 40.7241L51.9603 40.7487Z" fill="#F2F2F2"/>
<path d="M80.1503 54.3708C79.8143 53.0161 79.5603 52.1622 79.3882 51.8255C77.5936 47.2112 76.5857 44.4935 76.3726 43.6724C76.3235 43.5329 76.2907 43.4015 76.2661 43.2619C76.1432 42.6215 76.1596 42.0632 76.3153 41.5787C77.1511 39.5918 77.7821 37.7937 78.2164 36.1926C79.1669 32.6785 75.9465 29.3614 72.4721 30.4206C71.1446 30.8229 69.9973 31.5619 69.0877 32.3008C68.0716 33.1219 67.539 34.4273 67.7766 35.7164V35.741L67.793 35.8642C67.9159 36.521 68.1372 37.2354 68.4486 37.9989C69.4893 39.7232 70.0711 40.9137 70.2022 41.5705L70.3661 42.4655C70.407 44.083 70.0137 45.0518 69.1779 45.3474L68.7354 45.4377L68.2437 45.4623C67.203 45.0847 66.4901 43.8613 66.1049 41.784L66.0066 41.275C65.7198 36.6935 65.5067 34.0415 65.3674 33.3189C64.7774 30.1743 63.368 28.8113 61.1391 29.2301L60.8113 29.2957C59.3445 29.5749 58.1153 30.3795 57.132 31.7261C55.575 34.2878 55.1571 37.4653 55.87 41.2503L55.9192 41.5131C56.2798 43.4261 56.9353 45.3802 57.8859 47.359C60.1967 51.8748 63.3762 53.7468 67.4079 52.9832C69.8908 52.5152 71.8739 50.9552 73.3489 48.3032L73.48 48.804C73.5619 49.2474 73.6193 49.7893 73.6603 50.4461C73.4554 53.5169 72.0869 55.2904 69.5384 55.7666L68.7681 55.9144C68.2683 56.0129 67.7111 55.9801 67.0801 55.8323C64.8266 55.2493 62.9091 55.1098 61.3194 55.4053C60.0902 55.6434 58.9676 56.0293 57.9596 56.5712C56.0257 57.8849 55.2718 59.6994 55.7061 62.0066C55.9684 63.2793 56.4109 64.3302 57.0418 65.1595C59.5985 68.3288 63.8351 69.3551 69.7597 68.2302L70.2677 68.1317C72.554 67.7048 74.6846 66.5142 76.6676 64.5683C79.6094 61.087 80.7731 57.6879 80.1503 54.379V54.3708Z" fill="#F2F2F2"/>
<path d="M84.6321 33.6059H84.6977C86.6479 33.6059 87.9836 34.7061 88.7048 36.9065C88.9506 37.7604 89.0735 38.7046 89.0735 39.7309C89.3603 41.5208 89.4177 42.1449 89.7618 49.5344C89.7864 49.9942 89.77 50.4622 89.7455 50.9219C89.7455 51.004 89.7373 51.0944 89.7291 51.1929C89.7291 51.8169 90.0077 54.0994 90.5567 58.0323L90.6469 59.0668C90.6469 60.5529 90.2043 62.0637 89.3193 63.6073C88.631 64.5843 87.9017 65.077 87.1232 65.077C85.4597 65.077 84.3207 64.0835 83.7143 62.0965C83.5586 61.3904 83.4849 60.7664 83.4849 60.2163V59.9618C83.4849 58.8616 83.7717 56.6529 84.3535 53.3276C84.4027 52.9171 84.419 52.5558 84.419 52.2521C84.419 51.7594 81.551 48.9104 80.5267 42.6703C80.371 41.4141 80.2972 40.6013 80.2972 40.24V40.0758C80.2972 40.0758 80.2808 40.0265 80.248 40.0265L80.2972 39.9773V39.7966C80.2972 38.0724 80.8708 36.4549 82.0181 34.9524C82.8703 34.0492 83.7389 33.5977 84.6321 33.5977V33.6059Z" fill="#F2F2F2"/>
<path d="M95.6633 34.1639H95.7289C97.6792 34.1639 99.0149 35.0753 99.736 36.898C99.9818 37.6041 100.105 38.3841 100.105 39.238C100.392 40.7241 100.449 41.2332 100.793 47.3583C100.818 47.7442 100.801 48.1218 100.777 48.5077C100.777 48.5734 100.769 48.6555 100.76 48.7376C100.76 49.2549 101.039 51.1433 101.588 54.4029L101.678 55.2568C101.678 56.4884 101.236 57.7446 100.351 59.0172C99.6623 59.8301 98.9329 60.2324 98.1545 60.2324C96.491 60.2324 95.352 59.4114 94.7456 57.761C94.5899 57.1781 94.5161 56.6608 94.5161 56.201V55.9958C94.5161 55.0844 94.8029 53.2534 95.3847 50.5029C95.4339 50.1581 95.4503 49.8625 95.4503 49.6079C95.4503 49.2056 92.5822 46.841 91.5579 41.6683C91.4022 40.6256 91.3285 39.9605 91.3285 39.6567V39.5254C91.3285 39.5254 91.3121 39.4843 91.2793 39.4843L91.3285 39.4433V39.2873C91.3285 37.8586 91.9021 36.5203 93.0493 35.2723C93.9015 34.5251 94.7701 34.1475 95.6633 34.1475V34.1639Z" fill="#F2F2F2"/>
<path d="M118.196 29.5826C119.352 29.9931 119.95 31.0195 119.999 32.6698C119.983 33.5647 119.786 34.5254 119.417 35.5599C118.598 37.8753 117.336 39.1726 115.632 39.4517C114.869 39.5092 114.255 39.4517 113.771 39.2875L113.558 39.2136C112.46 38.8195 111.747 38.0395 111.428 36.8654C111.272 35.9786 111.362 35.0673 111.69 34.1395L111.78 33.8767C112.444 31.9965 113.665 30.65 115.435 29.8207C116.549 29.4102 117.467 29.3363 118.188 29.5908L118.196 29.5826Z" fill="#F2F2F2"/>
<path d="M107.447 35.0346C109.676 35.0346 111.126 37.6291 111.815 42.8182C111.896 43.9512 111.937 44.9365 111.937 45.7658V46.2256C111.937 50.298 111.126 52.9829 109.512 54.2801C109.069 54.5675 108.611 54.7071 108.143 54.7071H108.021C106.423 54.7071 105.054 53.5001 103.923 51.0862C103.317 49.4687 103.014 47.8266 103.014 46.1599V45.6426C103.014 40.0266 103.981 36.6028 105.923 35.363C106.472 35.1413 106.972 35.0264 107.439 35.0264L107.447 35.0346Z" fill="#F2F2F2"/>
<path d="M26.5173 11.0182C26.3453 11.6422 26.165 12.1923 25.9847 12.6767C25.8126 13.1283 25.3701 13.4239 24.8866 13.4239H24.5343C23.9197 13.4239 23.3051 13.4649 22.7069 13.5717C16.7085 14.6308 10.6856 17.5045 6.84239 23.3915C6.67031 23.6542 6.50642 23.917 6.34253 24.1797C6.12128 24.5492 5.65419 24.6723 5.28544 24.4589C3.72849 23.5639 1.40126 21.5523 1.31112 17.4881C1.31112 17.4881 4.96586 19.0727 6.43267 18.6622C6.43267 18.6622 2.20432 16.1744 2.62223 10.6487C3.03196 5.123 2.34362 1.3954 0 0.426557C0 0.426557 10.407 -1.89703 15.5941 4.27731C15.8645 4.59752 16.2579 4.79458 16.6758 4.79458C17.5526 4.79458 18.8555 4.40868 18.4212 2.0933C18.4212 2.0933 28.7544 3.11141 26.5091 11.0264L26.5173 11.0182Z" fill="url(#paint0_linear_5_2032)"/>
</g>
<defs>
<linearGradient id="paint0_linear_5_2032" x1="13.3732" y1="-0.00195312" x2="14.9629" y2="24.4629" gradientUnits="userSpaceOnUse">
<stop stop-color="#F22E3E"/>
<stop offset="1" stop-color="#B41212"/>
</linearGradient>
<clipPath id="clip0_5_2032">
<rect width="120" height="68.6567" fill="white"/>
</clipPath>
</defs>
</svg>
