<svg xmlns="http://www.w3.org/2000/svg">
  <symbol id="arrow" viewBox="0 0 20 21">
    <path
      d="M0 10.5C0 16.0226 4.4774 20.5 10 20.5C15.5226 20.5 20 16.0226 20 10.5C20 4.9774 15.5226 0.5 10 0.5C4.4774 0.5 0 4.9774 0 10.5ZM10.7692 6.64952L7.7125 9.73077H14.9038V11.2692H7.7125L10.7692 14.3505L9.67788 15.4341L4.78173 10.5L9.67788 5.56587L10.7692 6.64952Z"
    />
  </symbol>
  <symbol id="points" viewBox="0 0 16 16">
    <g>
      <circle cx="8" cy="2" r="2" transform="rotate(90 8 2)" />
      <circle cx="8" cy="8" r="2" transform="rotate(90 8 8)" />
      <circle cx="8" cy="14" r="2" transform="rotate(90 8 14)" />
    </g>
  </symbol>
  <symbol id="check" viewBox="0 0 10 7">
    <path
      d="M4.42439 6.99758C4.2389 6.99804 4.05914 6.91472 3.91631 6.76206L0.28679 3.68708C0.124667 3.51328 0.0227138 3.26352 0.00335929 2.99275C-0.0159952 2.72198 0.0488343 2.45239 0.183586 2.24328C0.318338 2.03416 0.511973 1.90266 0.721896 1.8777C0.931818 1.85273 1.14083 1.93635 1.30295 2.11016L4.42439 4.65267L8.67958 0.229091C8.76079 0.144034 8.85422 0.0805145 8.95452 0.0421853C9.05482 0.00385607 9.16 -0.00852774 9.26402 0.00574568C9.36804 0.0200191 9.46885 0.0606677 9.56065 0.125356C9.65245 0.190045 9.73344 0.277498 9.79895 0.382688C9.87165 0.487974 9.92672 0.611493 9.96069 0.745505C9.99466 0.879516 10.0068 1.02113 9.99638 1.16148C9.98594 1.30183 9.95315 1.43789 9.90005 1.56113C9.84695 1.68438 9.7747 1.79215 9.68781 1.8777L4.92454 6.8235C4.7776 6.95203 4.60151 7.01332 4.42439 6.99758Z"
    />
  </symbol>
  <symbol id="dollar" viewBox="0 0 17 16">
    <path
      d="M13.8 10.5804C13.8 11.4911 13.4588 12.2753 12.7763 12.933C12.0937 13.5908 11.2072 13.997 10.1165 14.1518V15.7143C10.1165 15.7976 10.0857 15.8661 10.0239 15.9196C9.9622 15.9732 9.88332 16 9.78728 16H8.39826C8.30909 16 8.23192 15.9717 8.16676 15.9152C8.1016 15.8586 8.06901 15.7917 8.06901 15.7143V14.1518C7.6163 14.0982 7.17901 14.006 6.75716 13.875C6.33531 13.744 5.9872 13.6116 5.71282 13.4777C5.43845 13.3438 5.18465 13.2009 4.95143 13.0491C4.71822 12.8973 4.55874 12.7857 4.47299 12.7143C4.38725 12.6429 4.32723 12.5893 4.29294 12.5536C4.17633 12.4286 4.16947 12.3065 4.27236 12.1875L5.33213 10.9821C5.38014 10.9226 5.45903 10.8869 5.56878 10.875C5.67167 10.8631 5.75398 10.8899 5.81571 10.9554L5.83629 10.9732C6.6114 11.5625 7.44481 11.9345 8.33653 12.0893C8.59033 12.1369 8.84412 12.1607 9.09792 12.1607C9.65353 12.1607 10.1423 12.0327 10.5641 11.7768C10.986 11.5208 11.1969 11.1577 11.1969 10.6875C11.1969 10.5208 11.1454 10.3631 11.0425 10.2143C10.9397 10.0655 10.8248 9.94048 10.6979 9.83929C10.571 9.7381 10.3703 9.62649 10.096 9.50447C9.82158 9.38244 9.59522 9.2872 9.41688 9.21875C9.23854 9.1503 8.96416 9.05357 8.59376 8.92857C8.32624 8.83333 8.11532 8.75893 7.96098 8.70536C7.80664 8.65179 7.59572 8.57292 7.3282 8.46875C7.06069 8.36458 6.84633 8.27232 6.68514 8.19197C6.52394 8.11161 6.33017 8.00595 6.10381 7.875C5.87745 7.74405 5.69396 7.61756 5.55334 7.49554C5.41273 7.37351 5.26354 7.22768 5.10577 7.05804C4.948 6.88839 4.82625 6.71577 4.74051 6.54018C4.65477 6.36458 4.58274 6.16667 4.52444 5.94643C4.46613 5.72619 4.43698 5.49405 4.43698 5.25C4.43698 4.42857 4.77309 3.70833 5.44531 3.08929C6.11753 2.47024 6.99209 2.07143 8.06901 1.89286V0.285714C8.06901 0.208333 8.1016 0.141369 8.16676 0.0848214C8.23192 0.0282738 8.30909 0 8.39826 0H9.78728C9.88332 0 9.9622 0.0267857 10.0239 0.0803571C10.0857 0.133929 10.1165 0.202381 10.1165 0.285714V1.85714C10.5075 1.89286 10.8865 1.96131 11.2535 2.0625C11.6204 2.16369 11.9188 2.26339 12.1486 2.36161C12.3784 2.45982 12.5962 2.57143 12.802 2.69643C13.0078 2.82143 13.1415 2.90774 13.2032 2.95536C13.265 3.00298 13.3164 3.04464 13.3576 3.08036C13.4742 3.1875 13.4913 3.3006 13.409 3.41964L12.5756 4.72321C12.5207 4.8125 12.4419 4.86012 12.339 4.86607C12.2429 4.88393 12.1503 4.8631 12.0612 4.80357C12.0406 4.78571 11.9909 4.75 11.912 4.69643C11.8331 4.64286 11.6993 4.56399 11.5107 4.45982C11.3221 4.35566 11.1214 4.26042 10.9088 4.17411C10.6962 4.0878 10.4406 4.01042 10.1423 3.94196C9.84387 3.87351 9.55064 3.83929 9.26254 3.83929C8.6109 3.83929 8.0793 3.96726 7.66774 4.22321C7.25618 4.47917 7.0504 4.80952 7.0504 5.21429C7.0504 5.36905 7.07955 5.51191 7.13786 5.64286C7.19616 5.77381 7.29734 5.89732 7.44138 6.01339C7.58543 6.12946 7.7209 6.22768 7.8478 6.30804C7.9747 6.38839 8.16676 6.48065 8.42399 6.58482C8.68121 6.68899 8.88871 6.76935 9.04647 6.82589C9.20424 6.88244 9.44432 6.96429 9.76671 7.07143C10.1303 7.19048 10.4081 7.28423 10.6001 7.35268C10.7922 7.42113 11.0528 7.5253 11.3821 7.66518C11.7113 7.80506 11.9703 7.93155 12.1589 8.04464C12.3475 8.15774 12.5602 8.30655 12.7968 8.49107C13.0335 8.6756 13.2153 8.86458 13.3422 9.05804C13.469 9.25149 13.5771 9.47917 13.6663 9.74107C13.7554 10.003 13.8 10.2827 13.8 10.5804Z"
    />
  </symbol>
  <symbol id="check" viewBox="0 0 10 7">
    <path
      d="M4.42439 6.99758C4.2389 6.99804 4.05914 6.91472 3.91631 6.76206L0.28679 3.68708C0.124667 3.51328 0.0227138 3.26352 0.00335929 2.99275C-0.0159952 2.72198 0.0488343 2.45239 0.183586 2.24328C0.318338 2.03416 0.511973 1.90266 0.721896 1.8777C0.931818 1.85273 1.14083 1.93635 1.30295 2.11016L4.42439 4.65267L8.67958 0.229091C8.76079 0.144034 8.85422 0.0805145 8.95452 0.0421853C9.05482 0.00385607 9.16 -0.00852774 9.26402 0.00574568C9.36804 0.0200191 9.46885 0.0606677 9.56065 0.125356C9.65245 0.190045 9.73344 0.277498 9.79895 0.382688C9.87165 0.487974 9.92672 0.611493 9.96069 0.745505C9.99466 0.879516 10.0068 1.02113 9.99638 1.16148C9.98594 1.30183 9.95315 1.43789 9.90005 1.56113C9.84695 1.68438 9.7747 1.79215 9.68781 1.8777L4.92454 6.8235C4.7776 6.95203 4.60151 7.01332 4.42439 6.99758Z"
    />
  </symbol>
  <symbol id="share" viewBox="0 0 15 12">
    <path
      d="M6.59486 4.62961V2.33325L3.21218 4.8307L0.5 6.83311L3.26033 8.5315L6.59486 10.5833V8.33624C12.449 8.01047 14.5 10.5116 14.5 10.5116C14.5 8.95331 14.3261 7.3361 12.6667 6.11152C10.7379 4.68691 7.94448 4.5861 6.59486 4.62961Z"
    />
  </symbol>
  <symbol id="share-right" viewBox="0 0 37 36">
    <path
      d="M0.5 18C0.5 27.9407 8.55933 36 18.5 36C28.4407 36 36.5 27.9407 36.5 18C36.5 8.05933 28.4407 0 18.5 0C8.55933 0 0.5 8.05933 0.5 18ZM8.98077 25.6154C8.98077 19.7195 10.9426 13.7475 19.2936 13.7475V9L28.0192 17.3077L19.2936 25.6154V20.8679C13.5223 20.8679 11.3909 22.5372 8.98077 25.6154Z"
    />
  </symbol>
  <symbol id="like-inactive" viewBox="0 0 18 18">
    <path
      d="M8.24264 3.95315L9.00002 4.83162L9.75739 3.95315C10.2691 3.35962 10.717 2.91963 11.2399 2.61664C11.7436 2.32481 12.3729 2.12881 13.2857 2.12881C14.1278 2.12881 14.9051 2.40754 15.4844 3.05996C16.0741 3.72412 16.5714 4.90325 16.5714 6.92024C16.5714 7.72112 16.1541 9.14466 14.8926 10.8492C13.7141 12.4415 11.8324 14.2298 9.00002 15.9003C6.16761 14.2298 4.2859 12.4415 3.10739 10.8492C1.8459 9.14466 1.42859 7.72112 1.42859 6.92024C1.42859 4.90325 1.92593 3.72412 2.51565 3.05996C3.09494 2.40754 3.87227 2.12881 4.7143 2.12881C5.62716 2.12881 6.25643 2.32481 6.76013 2.61664C7.28308 2.91963 7.73092 3.35962 8.24264 3.95315Z"
      stroke-width="2"
    />
  </symbol>
  <symbol id="like-active" viewBox="0 0 41 36">
    <path
      d="M30.5 0C25.5 0 22.9844 2.11674 20.5 4.90839C18.0156 2.11674 15.5 0 10.5 0C5.5 0 0.5 3.27482 0.5 13.0916C0.5 18 5.5 27.8168 20.5 36C35.5 27.8168 40.5 18 40.5 13.0916C40.5 3.27482 35.5 0 30.5 0V0Z"
      fill="url(#like-gradient)"
    />
  </symbol>
  <defs>
    <linearGradient
      id="like-gradient"
      x1="20.4388"
      y1="7.39505e-09"
      x2="22.729"
      y2="35.8576"
      gradientUnits="userSpaceOnUse"
    >
      <stop stop-color="#F22E3E" />
      <stop offset="1" stop-color="#B41212" />
    </linearGradient>
  </defs>
</svg>
