<svg xmlns="http://www.w3.org/2000/svg">
  <symbol id="arrow" viewBox="0 0 20 21">
    <path
      d="M0 10.5C0 16.0226 4.4774 20.5 10 20.5C15.5226 20.5 20 16.0226 20 10.5C20 4.9774 15.5226 0.5 10 0.5C4.4774 0.5 0 4.9774 0 10.5ZM10.7692 6.64952L7.7125 9.73077H14.9038V11.2692H7.7125L10.7692 14.3505L9.67788 15.4341L4.78173 10.5L9.67788 5.56587L10.7692 6.64952Z"
    />
  </symbol>
  <symbol id="points" viewBox="0 0 16 16">
    <g>
      <circle cx="8" cy="2" r="2" transform="rotate(90 8 2)" />
      <circle cx="8" cy="8" r="2" transform="rotate(90 8 8)" />
      <circle cx="8" cy="14" r="2" transform="rotate(90 8 14)" />
    </g>
  </symbol>
  <symbol id="check" viewBox="0 0 10 7">
    <path
      d="M4.42439 6.99758C4.2389 6.99804 4.05914 6.91472 3.91631 6.76206L0.28679 3.68708C0.124667 3.51328 0.0227138 3.26352 0.00335929 2.99275C-0.0159952 2.72198 0.0488343 2.45239 0.183586 2.24328C0.318338 2.03416 0.511973 1.90266 0.721896 1.8777C0.931818 1.85273 1.14083 1.93635 1.30295 2.11016L4.42439 4.65267L8.67958 0.229091C8.76079 0.144034 8.85422 0.0805145 8.95452 0.0421853C9.05482 0.00385607 9.16 -0.00852774 9.26402 0.00574568C9.36804 0.0200191 9.46885 0.0606677 9.56065 0.125356C9.65245 0.190045 9.73344 0.277498 9.79895 0.382688C9.87165 0.487974 9.92672 0.611493 9.96069 0.745505C9.99466 0.879516 10.0068 1.02113 9.99638 1.16148C9.98594 1.30183 9.95315 1.43789 9.90005 1.56113C9.84695 1.68438 9.7747 1.79215 9.68781 1.8777L4.92454 6.8235C4.7776 6.95203 4.60151 7.01332 4.42439 6.99758Z"
    />
  </symbol>
  <symbol id="dollar" viewBox="0 0 17 16">
    <path
      d="M13.8 10.5804C13.8 11.4911 13.4588 12.2753 12.7763 12.933C12.0937 13.5908 11.2072 13.997 10.1165 14.1518V15.7143C10.1165 15.7976 10.0857 15.8661 10.0239 15.9196C9.9622 15.9732 9.88332 16 9.78728 16H8.39826C8.30909 16 8.23192 15.9717 8.16676 15.9152C8.1016 15.8586 8.06901 15.7917 8.06901 15.7143V14.1518C7.6163 14.0982 7.17901 14.006 6.75716 13.875C6.33531 13.744 5.9872 13.6116 5.71282 13.4777C5.43845 13.3438 5.18465 13.2009 4.95143 13.0491C4.71822 12.8973 4.55874 12.7857 4.47299 12.7143C4.38725 12.6429 4.32723 12.5893 4.29294 12.5536C4.17633 12.4286 4.16947 12.3065 4.27236 12.1875L5.33213 10.9821C5.38014 10.9226 5.45903 10.8869 5.56878 10.875C5.67167 10.8631 5.75398 10.8899 5.81571 10.9554L5.83629 10.9732C6.6114 11.5625 7.44481 11.9345 8.33653 12.0893C8.59033 12.1369 8.84412 12.1607 9.09792 12.1607C9.65353 12.1607 10.1423 12.0327 10.5641 11.7768C10.986 11.5208 11.1969 11.1577 11.1969 10.6875C11.1969 10.5208 11.1454 10.3631 11.0425 10.2143C10.9397 10.0655 10.8248 9.94048 10.6979 9.83929C10.571 9.7381 10.3703 9.62649 10.096 9.50447C9.82158 9.38244 9.59522 9.2872 9.41688 9.21875C9.23854 9.1503 8.96416 9.05357 8.59376 8.92857C8.32624 8.83333 8.11532 8.75893 7.96098 8.70536C7.80664 8.65179 7.59572 8.57292 7.3282 8.46875C7.06069 8.36458 6.84633 8.27232 6.68514 8.19197C6.52394 8.11161 6.33017 8.00595 6.10381 7.875C5.87745 7.74405 5.69396 7.61756 5.55334 7.49554C5.41273 7.37351 5.26354 7.22768 5.10577 7.05804C4.948 6.88839 4.82625 6.71577 4.74051 6.54018C4.65477 6.36458 4.58274 6.16667 4.52444 5.94643C4.46613 5.72619 4.43698 5.49405 4.43698 5.25C4.43698 4.42857 4.77309 3.70833 5.44531 3.08929C6.11753 2.47024 6.99209 2.07143 8.06901 1.89286V0.285714C8.06901 0.208333 8.1016 0.141369 8.16676 0.0848214C8.23192 0.0282738 8.30909 0 8.39826 0H9.78728C9.88332 0 9.9622 0.0267857 10.0239 0.0803571C10.0857 0.133929 10.1165 0.202381 10.1165 0.285714V1.85714C10.5075 1.89286 10.8865 1.96131 11.2535 2.0625C11.6204 2.16369 11.9188 2.26339 12.1486 2.36161C12.3784 2.45982 12.5962 2.57143 12.802 2.69643C13.0078 2.82143 13.1415 2.90774 13.2032 2.95536C13.265 3.00298 13.3164 3.04464 13.3576 3.08036C13.4742 3.1875 13.4913 3.3006 13.409 3.41964L12.5756 4.72321C12.5207 4.8125 12.4419 4.86012 12.339 4.86607C12.2429 4.88393 12.1503 4.8631 12.0612 4.80357C12.0406 4.78571 11.9909 4.75 11.912 4.69643C11.8331 4.64286 11.6993 4.56399 11.5107 4.45982C11.3221 4.35566 11.1214 4.26042 10.9088 4.17411C10.6962 4.0878 10.4406 4.01042 10.1423 3.94196C9.84387 3.87351 9.55064 3.83929 9.26254 3.83929C8.6109 3.83929 8.0793 3.96726 7.66774 4.22321C7.25618 4.47917 7.0504 4.80952 7.0504 5.21429C7.0504 5.36905 7.07955 5.51191 7.13786 5.64286C7.19616 5.77381 7.29734 5.89732 7.44138 6.01339C7.58543 6.12946 7.7209 6.22768 7.8478 6.30804C7.9747 6.38839 8.16676 6.48065 8.42399 6.58482C8.68121 6.68899 8.88871 6.76935 9.04647 6.82589C9.20424 6.88244 9.44432 6.96429 9.76671 7.07143C10.1303 7.19048 10.4081 7.28423 10.6001 7.35268C10.7922 7.42113 11.0528 7.5253 11.3821 7.66518C11.7113 7.80506 11.9703 7.93155 12.1589 8.04464C12.3475 8.15774 12.5602 8.30655 12.7968 8.49107C13.0335 8.6756 13.2153 8.86458 13.3422 9.05804C13.469 9.25149 13.5771 9.47917 13.6663 9.74107C13.7554 10.003 13.8 10.2827 13.8 10.5804Z"
    />
  </symbol>
  <symbol id="check" viewBox="0 0 10 7">
    <path
      d="M4.42439 6.99758C4.2389 6.99804 4.05914 6.91472 3.91631 6.76206L0.28679 3.68708C0.124667 3.51328 0.0227138 3.26352 0.00335929 2.99275C-0.0159952 2.72198 0.0488343 2.45239 0.183586 2.24328C0.318338 2.03416 0.511973 1.90266 0.721896 1.8777C0.931818 1.85273 1.14083 1.93635 1.30295 2.11016L4.42439 4.65267L8.67958 0.229091C8.76079 0.144034 8.85422 0.0805145 8.95452 0.0421853C9.05482 0.00385607 9.16 -0.00852774 9.26402 0.00574568C9.36804 0.0200191 9.46885 0.0606677 9.56065 0.125356C9.65245 0.190045 9.73344 0.277498 9.79895 0.382688C9.87165 0.487974 9.92672 0.611493 9.96069 0.745505C9.99466 0.879516 10.0068 1.02113 9.99638 1.16148C9.98594 1.30183 9.95315 1.43789 9.90005 1.56113C9.84695 1.68438 9.7747 1.79215 9.68781 1.8777L4.92454 6.8235C4.7776 6.95203 4.60151 7.01332 4.42439 6.99758Z"
    />
  </symbol>
  <symbol id="share" viewBox="0 0 15 12">
    <path
      d="M6.59486 4.62961V2.33325L3.21218 4.8307L0.5 6.83311L3.26033 8.5315L6.59486 10.5833V8.33624C12.449 8.01047 14.5 10.5116 14.5 10.5116C14.5 8.95331 14.3261 7.3361 12.6667 6.11152C10.7379 4.68691 7.94448 4.5861 6.59486 4.62961Z"
    />
  </symbol>
  <symbol id="share-right" viewBox="0 0 37 36">
    <path
      d="M0.5 18C0.5 27.9407 8.55933 36 18.5 36C28.4407 36 36.5 27.9407 36.5 18C36.5 8.05933 28.4407 0 18.5 0C8.55933 0 0.5 8.05933 0.5 18ZM8.98077 25.6154C8.98077 19.7195 10.9426 13.7475 19.2936 13.7475V9L28.0192 17.3077L19.2936 25.6154V20.8679C13.5223 20.8679 11.3909 22.5372 8.98077 25.6154Z"
    />
  </symbol>
  <symbol id="like-active" viewBox="0 0 18 18">
    <path
      d="M8.24264 3.95315L9.00002 4.83162L9.75739 3.95315C10.2691 3.35962 10.717 2.91963 11.2399 2.61664C11.7436 2.32481 12.3729 2.12881 13.2857 2.12881C14.1278 2.12881 14.9051 2.40754 15.4844 3.05996C16.0741 3.72412 16.5714 4.90325 16.5714 6.92024C16.5714 7.72112 16.1541 9.14466 14.8926 10.8492C13.7141 12.4415 11.8324 14.2298 9.00002 15.9003C6.16761 14.2298 4.2859 12.4415 3.10739 10.8492C1.8459 9.14466 1.42859 7.72112 1.42859 6.92024C1.42859 4.90325 1.92593 3.72412 2.51565 3.05996C3.09494 2.40754 3.87227 2.12881 4.7143 2.12881C5.62716 2.12881 6.25643 2.32481 6.76013 2.61664C7.28308 2.91963 7.73092 3.35962 8.24264 3.95315Z"
      stroke-width="2"
    />
  </symbol>
  <symbol id="login" viewBox="0 0 36 36">
    <g>
      <rect width="36" height="36" rx="18" fill="#2F2B32" />
      <path
        fill-rule="evenodd"
        clip-rule="evenodd"
        d="M21.6364 15.2726C21.6364 16.237 21.2533 17.1619 20.5713 17.8439C19.8894 18.5258 18.9644 18.909 18 18.909C17.0356 18.909 16.1107 18.5258 15.4287 17.8439C14.7468 17.1619 14.3636 16.237 14.3636 15.2726C14.3636 14.3082 14.7468 13.3832 15.4287 12.7013C16.1107 12.0193 17.0356 11.6362 18 11.6362C18.9644 11.6362 19.8894 12.0193 20.5713 12.7013C21.2533 13.3832 21.6364 14.3082 21.6364 15.2726V15.2726ZM19.8182 15.2726C19.8182 15.7548 19.6266 16.2173 19.2857 16.5582C18.9447 16.8992 18.4822 17.0908 18 17.0908C17.5178 17.0908 17.0553 16.8992 16.7144 16.5582C16.3734 16.2173 16.1818 15.7548 16.1818 15.2726C16.1818 14.7904 16.3734 14.3279 16.7144 13.9869C17.0553 13.646 17.5178 13.4544 18 13.4544C18.4822 13.4544 18.9447 13.646 19.2857 13.9869C19.6266 14.3279 19.8182 14.7904 19.8182 15.2726V15.2726Z"
      />
      <path
        fill-rule="evenodd"
        clip-rule="evenodd"
        d="M18 8C12.4773 8 8 12.4773 8 18C8 23.5227 12.4773 28 18 28C23.5227 28 28 23.5227 28 18C28 12.4773 23.5227 8 18 8ZM9.81818 18C9.81818 19.9 10.4664 21.6491 11.5527 23.0382C12.3157 22.0363 13.2999 21.2243 14.4286 20.6657C15.5572 20.1072 16.7998 19.8171 18.0591 19.8182C19.3021 19.817 20.529 20.0996 21.6463 20.6443C22.7636 21.1891 23.7418 21.9817 24.5064 22.9618C25.294 21.9287 25.8244 20.7229 26.0535 19.4442C26.2827 18.1654 26.204 16.8505 25.8241 15.6082C25.4441 14.3658 24.7738 13.2319 23.8686 12.3C22.9634 11.3682 21.8493 10.6653 20.6185 10.2496C19.3877 9.83378 18.0756 9.71707 16.7908 9.90907C15.5059 10.1011 14.2853 10.5963 13.2298 11.3537C12.1743 12.1111 11.3144 13.109 10.7211 14.2647C10.1279 15.4205 9.81835 16.7009 9.81818 18V18ZM18 26.1818C16.1218 26.1846 14.3002 25.5385 12.8436 24.3527C13.4299 23.5134 14.2103 22.8281 15.1184 22.3552C16.0264 21.8822 17.0353 21.6356 18.0591 21.6364C19.0701 21.6356 20.0668 21.876 20.9663 22.3377C21.8658 22.7993 22.6422 23.469 23.2309 24.2909C21.763 25.5152 19.9114 26.1845 18 26.1818V26.1818Z"
      />
    </g>
  </symbol>
  <symbol id="card" viewBox="0 0 36 36">
    <g>
      <rect width="36" height="36" rx="18" fill="#2F2B32" />
      <path
        d="M8 12.6667C8 11.9594 8.26339 11.2811 8.73223 10.781C9.20107 10.281 9.83696 10 10.5 10H25.5C26.163 10 26.7989 10.281 27.2678 10.781C27.7366 11.2811 28 11.9594 28 12.6667V23.3333C28 24.0406 27.7366 24.7189 27.2678 25.219C26.7989 25.719 26.163 26 25.5 26H10.5C9.83696 26 9.20107 25.719 8.73223 25.219C8.26339 24.7189 8 24.0406 8 23.3333V12.6667ZM10.5 11.3333C10.1685 11.3333 9.85054 11.4738 9.61612 11.7239C9.3817 11.9739 9.25 12.313 9.25 12.6667V14H26.75V12.6667C26.75 12.313 26.6183 11.9739 26.3839 11.7239C26.1495 11.4738 25.8315 11.3333 25.5 11.3333H10.5ZM26.75 16.6667H9.25V23.3333C9.25 23.687 9.3817 24.0261 9.61612 24.2761C9.85054 24.5262 10.1685 24.6667 10.5 24.6667H25.5C25.8315 24.6667 26.1495 24.5262 26.3839 24.2761C26.6183 24.0261 26.75 23.687 26.75 23.3333V16.6667Z"
      />
      <path
        d="M10.5 20.6668C10.5 20.3132 10.6317 19.9741 10.8661 19.724C11.1005 19.474 11.4185 19.3335 11.75 19.3335H13C13.3315 19.3335 13.6495 19.474 13.8839 19.724C14.1183 19.9741 14.25 20.3132 14.25 20.6668V22.0002C14.25 22.3538 14.1183 22.6929 13.8839 22.943C13.6495 23.193 13.3315 23.3335 13 23.3335H11.75C11.4185 23.3335 11.1005 23.193 10.8661 22.943C10.6317 22.6929 10.5 22.3538 10.5 22.0002V20.6668Z"
      />
    </g>
  </symbol>
  <symbol id="notes" viewBox="0 0 36 36">
    <g>
      <rect width="36" height="36" rx="18" fill="#2F2B32" stroke="#2F2B32" />
      <path
        d="M9 11V24.192C9 24.9782 9.86551 25.4569 10.5315 25.0391L17.9963 20.3553C18.339 20.1402 18.7775 20.1529 19.1073 20.3874L25.4205 24.8768C26.0826 25.3476 27 24.8742 27 24.0618V11C27 10.4477 26.5523 10 26 10H10C9.44772 10 9 10.4477 9 11Z"
        stroke-width="1.5"
      />
    </g>
  </symbol>
  <symbol id="cash" viewBox="0 0 36 36">
    <g>
      <rect width="36" height="36" rx="18" fill="#2F2B32" />
      <path
        d="M11.6323 22.6888H24.4894C24.6315 22.6888 24.7677 22.6218 24.8682 22.5024C24.9687 22.3831 25.0251 22.2212 25.0251 22.0525C25.0251 21.8837 24.9687 21.7218 24.8682 21.6025C24.7677 21.4831 24.6315 21.4161 24.4894 21.4161H11.6323C11.4902 21.4161 11.3539 21.4831 11.2534 21.6025C11.153 21.7218 11.0965 21.8837 11.0965 22.0525C11.0965 22.2212 11.153 22.3831 11.2534 22.5024C11.3539 22.6218 11.4902 22.6888 11.6323 22.6888Z"
      />
      <path
        d="M12.7037 24.5979H23.418C23.56 24.5979 23.6963 24.5309 23.7968 24.4115C23.8972 24.2922 23.9537 24.1303 23.9537 23.9616C23.9537 23.7928 23.8972 23.6309 23.7968 23.5116C23.6963 23.3922 23.56 23.3252 23.418 23.3252H12.7037C12.5616 23.3252 12.4253 23.3922 12.3249 23.5116C12.2244 23.6309 12.168 23.7928 12.168 23.9616C12.168 24.1303 12.2244 24.2922 12.3249 24.4115C12.4253 24.5309 12.5616 24.5979 12.7037 24.5979Z"
      />
      <path
        d="M9.97485 17.999H10.5106C11.0787 17.9998 11.6234 18.2682 12.0251 18.7454C12.4268 19.2226 12.6528 19.8696 12.6534 20.5445V20.999H11.0463C10.7621 20.999 10.4896 20.8649 10.2887 20.6263C10.0877 20.3876 9.97485 19.8366 9.97485 19.499V17.999Z"
      />
      <path
        d="M25.4918 17.2685H26.0251V15.1352H25.4918C24.6434 15.1342 23.8301 14.7968 23.2301 14.1969C22.6302 13.597 22.2928 12.7836 22.2918 11.9352V11.4019H13.7585V11.9352C13.7575 12.7836 13.4201 13.597 12.8201 14.1969C12.2202 14.7968 11.4069 15.1342 10.5585 15.1352H10.0251V17.2685H10.5585C11.4069 17.2695 12.2202 17.6069 12.8201 18.2069C13.4201 18.8068 13.7575 19.6201 13.7585 20.4685V21.0019H22.2918V20.4685C22.2928 19.6201 22.6302 18.8068 23.2301 18.2069C23.8301 17.6069 24.6434 17.2695 25.4918 17.2685V17.2685ZM18.0251 19.4019C17.3922 19.4019 16.7736 19.2142 16.2473 18.8626C15.7211 18.5109 15.3109 18.0112 15.0687 17.4264C14.8265 16.8417 14.7632 16.1983 14.8866 15.5776C15.0101 14.9568 15.3149 14.3866 15.7624 13.9391C16.2099 13.4916 16.7801 13.1868 17.4009 13.0633C18.0216 12.9399 18.665 13.0032 19.2497 13.2454C19.8345 13.4876 20.3342 13.8978 20.6858 14.424C21.0375 14.9503 21.2251 15.569 21.2251 16.2019C21.2242 17.0503 20.8867 17.8636 20.2868 18.4635C19.6869 19.0634 18.8735 19.4009 18.0251 19.4019V19.4019Z"
      />
      <path
        d="M18.0248 19.0019C19.3502 19.0019 20.4248 17.7483 20.4248 16.2019C20.4248 14.6555 19.3502 13.4019 18.0248 13.4019C16.6993 13.4019 15.6248 14.6555 15.6248 16.2019C15.6248 17.7483 16.6993 19.0019 18.0248 19.0019Z"
      />
      <path
        d="M23.3585 20.4685V21.0019H24.9585C25.2414 21.0019 25.5127 20.8895 25.7127 20.6894C25.9128 20.4894 26.0251 20.2181 26.0251 19.9352V18.3352H25.4918C24.9262 18.3358 24.3839 18.5608 23.984 18.9607C23.5841 19.3607 23.3591 19.9029 23.3585 20.4685ZM25.4918 14.0685H26.0251V12.4685C26.0251 12.1856 25.9128 11.9143 25.7127 11.7143C25.5127 11.5142 25.2414 11.4019 24.9585 11.4019H23.3585V11.9352C23.3591 12.5008 23.5841 13.0431 23.984 13.443C24.3839 13.8429 24.9262 14.0679 25.4918 14.0685V14.0685ZM12.6918 11.9352V11.4019H11.0918C10.8089 11.4019 10.5376 11.5142 10.3376 11.7143C10.1375 11.9143 10.0251 12.1856 10.0251 12.4685V14.0685H10.5585C11.1241 14.0679 11.6663 13.8429 12.0663 13.443C12.4662 13.0431 12.6912 12.5008 12.6918 11.9352V11.9352Z"
      />
    </g>
  </symbol>
  <symbol id="nav-share" viewBox="0 0 36 36">
    <g>
      <rect width="36" height="36" rx="18" fill="#2F2B32" />
      <path
        d="M9 18C9 22.6942 13.0297 26.5 18 26.5C22.9703 26.5 27 22.6942 27 18C27 13.3058 22.9703 9.5 18 9.5C13.0297 9.5 9 13.3058 9 18ZM13.2404 21.5962C13.2404 18.812 14.2213 15.9919 18.3968 15.9919V13.75L22.7596 17.6731L18.3968 21.5962V19.3543C15.5112 19.3543 14.4454 20.1426 13.2404 21.5962Z"
      />
    </g>
  </symbol>
  <symbol id="theme" viewBox="0 0 36 36">
    <g>
      <rect width="36" height="36" rx="18" fill="#2F2B32" stroke="#2F2B32" />
      <path
        d="M18.0003 21.7209C20.176 21.7209 21.9397 20.0551 21.9397 18.0003C21.9397 15.9455 20.176 14.2798 18.0003 14.2798C15.8246 14.2798 14.0609 15.9455 14.0609 18.0003C14.0609 20.0551 15.8246 21.7209 18.0003 21.7209Z"
        stroke-width="1.5"
        stroke-linecap="round"
        stroke-linejoin="round"
      />
      <path
        d="M11.6364 24.0103L12.2425 23.4379M23.7576 23.4379L24.3637 24.0103M23.7576 12.5625L24.3637 11.9901M12.2425 12.5625L11.6364 11.9901M11.0304 18.0002H9.81824M26.1819 18.0002H24.9698M18.0001 24.5827V25.7275M18.0001 10.2729V11.4177"
        stroke-width="1.5"
        stroke-linecap="round"
        stroke-linejoin="round"
      />
    </g>
  </symbol>
  <symbol id="lang" viewBox="0 0 36 36">
    <g>
      <rect width="36" height="36" rx="18" fill="#2F2B32" />
      <path
        d="M17.991 9C13.023 9 9 13.032 9 18C9 22.968 13.023 27 17.991 27C22.968 27 27 22.968 27 18C27 13.032 22.968 9 17.991 9ZM24.228 14.4H21.573C21.2913 13.2853 20.8742 12.2093 20.331 11.196C21.9727 11.7612 23.3561 12.8986 24.228 14.4ZM18 10.836C18.747 11.916 19.332 13.113 19.719 14.4H16.281C16.668 13.113 17.253 11.916 18 10.836ZM11.034 19.8C10.89 19.224 10.8 18.621 10.8 18C10.8 17.379 10.89 16.776 11.034 16.2H14.076C14.004 16.794 13.95 17.388 13.95 18C13.95 18.612 14.004 19.206 14.076 19.8H11.034ZM11.772 21.6H14.427C14.715 22.725 15.129 23.805 15.669 24.804C14.0256 24.2419 12.6412 23.1037 11.772 21.6V21.6ZM14.427 14.4H11.772C12.6412 12.8963 14.0256 11.7581 15.669 11.196C15.1258 12.2093 14.7087 13.2853 14.427 14.4V14.4ZM18 25.164C17.253 24.084 16.668 22.887 16.281 21.6H19.719C19.332 22.887 18.747 24.084 18 25.164ZM20.106 19.8H15.894C15.813 19.206 15.75 18.612 15.75 18C15.75 17.388 15.813 16.785 15.894 16.2H20.106C20.187 16.785 20.25 17.388 20.25 18C20.25 18.612 20.187 19.206 20.106 19.8ZM20.331 24.804C20.871 23.805 21.285 22.725 21.573 21.6H24.228C23.3561 23.1014 21.9727 24.2388 20.331 24.804V24.804ZM21.924 19.8C21.996 19.206 22.05 18.612 22.05 18C22.05 17.388 21.996 16.794 21.924 16.2H24.966C25.11 16.776 25.2 17.379 25.2 18C25.2 18.621 25.11 19.224 24.966 19.8H21.924Z"
      />
    </g>
  </symbol>
  <symbol id="off" viewBox="0 0 36 36">
    <g>
      <rect width="36" height="36" rx="18" fill="#2F2B32" />
      <path
        d="M9 18L13.4996 21.5551V18.8888H21.5988V17.1112H13.4996V14.4448L9 18Z"
      />
      <path
        d="M18.8999 10C17.8358 9.99712 16.7816 10.2028 15.7986 10.6051C14.8155 11.0074 13.923 11.5984 13.1729 12.3438L14.4453 13.6005C15.635 12.4255 17.2171 11.7776 18.8999 11.7776C20.5827 11.7776 22.1648 12.4255 23.3545 13.6005C24.5441 14.7755 25.2002 16.338 25.2002 18C25.2002 19.6621 24.5441 21.2245 23.3545 22.3995C22.1648 23.5745 20.5827 24.2224 18.8999 24.2224C17.2171 24.2224 15.635 23.5745 14.4453 22.3995L13.1729 23.6563C14.7018 25.1672 16.7356 26 18.8999 26C21.0642 26 23.098 25.1672 24.6269 23.6563C26.1568 22.1462 27 20.1376 27 18C27 15.8625 26.1568 13.8538 24.6269 12.3438C23.8768 11.5984 22.9843 11.0074 22.0012 10.6051C21.0181 10.2028 19.964 9.99712 18.8999 10V10Z"
      />
    </g>
  </symbol>
  <symbol id="arrow-prev" viewBox="0 0 34 34">
    <path
      d="M15 33L1 17L15 0.999999M33 17L1 17L33 17Z"
      stroke-width="2"
      stroke-linecap="round"
      stroke-linejoin="round"
    />
  </symbol>
  <symbol id="arrow-next" viewBox="0 0 34 34">
    <path
      d="M19 0.999999L33 17L19 33M0.999998 17L33 17L0.999998 17Z"
      stroke-width="2"
      stroke-linecap="round"
      stroke-linejoin="round"
    />
  </symbol>
  <symbol id="play-video" viewBox="0 0 54 54">
    <rect width="54" height="54" rx="27" fill="#0D0D0D" fill-opacity="0.7" />
    <path
      d="M39.1103 26.8679L17.344 14.2409V39.4949L39.1103 26.8679ZM42.0805 24.2577C42.5402 24.521 42.9223 24.901 43.1881 25.3593C43.4538 25.8177 43.5938 26.3381 43.5938 26.8679C43.5938 27.3977 43.4538 27.9181 43.1881 28.3765C42.9223 28.8348 42.5402 29.2148 42.0805 29.4781L18.2178 43.3239C16.2677 44.4565 13.5938 43.1626 13.5938 40.7137V13.0221C13.5938 10.5732 16.2677 9.27933 18.2178 10.4119L42.0805 24.2577Z"
    />
  </symbol>
</svg>
